# xmcd CD database file
#
# Track frame offsets:
#	150
#	19575
#	48975
#
# Disc length: 908 seconds
#
# Revision: 0
# Processed by: cddbd v1.5.1PL0 Copyright (c) Steve Scherf et al.
# Submitted via: CDex 1.51
#
DISCID=19038a03
DTITLE=ZIGGY - Without... (Single Version)
DYEAR=1999
DGENRE=Hard Rock
TTITLE0=Without... (Single Version)
TTITLE1=この空の下のどこかに (Single Version)
TTITLE2=Without... (Single Version)（オリジナルカラオケ）
EXTD=YEAR: 1999
EXTT0=
EXTT1=
EXTT2=
PLAYORDER=
